<svg width="807" height="592" viewBox="0 0 807 592" fill="none" xmlns="http://www.w3.org/2000/svg">
<ellipse cx="416" cy="295.445" rx="128.599" ry="128.045" fill="#F4D03F" fill-opacity="0.4"/>
<circle cx="416" cy="296" r="296" fill="#F4D03F" fill-opacity="0.4"/>
<circle cx="416" cy="296" r="208.419" fill="#F4D03F" fill-opacity="0.4"/>
<g filter="url(#filter0_d_2423_184)">
<rect x="482" y="432" width="305" height="91" rx="30" fill="white"/>
</g>
<g filter="url(#filter1_d_2423_184)">
<rect x="287" y="251" width="262" height="87" rx="30" fill="white"/>
</g>
<g filter="url(#filter2_d_2423_184)">
<rect x="519" y="70" width="209" height="87" rx="30" fill="white"/>
</g>
<g filter="url(#filter3_d_2423_184)">
<rect x="78" y="377" width="209" height="87" rx="30" fill="white"/>
</g>
<g filter="url(#filter4_d_2423_184)">
<rect x="20" y="105" width="305" height="91" rx="30" fill="white"/>
</g>
<path d="M550.312 476.136H577.128V479.528H550.312V476.136ZM561.608 471.688H565.832V477.448H561.608V471.688ZM553.544 470.344H574.088V473.704H553.544V470.344ZM553.544 463.496H573.928V466.824H557.768V472.488H553.544V463.496ZM563.624 481C570.024 481 573.896 482.952 573.896 486.44C573.896 489.928 570.024 491.88 563.624 491.88C557.224 491.88 553.32 489.928 553.32 486.44C553.32 482.952 557.224 481 563.624 481ZM563.624 484.2C559.656 484.2 557.64 484.936 557.64 486.44C557.64 487.976 559.656 488.648 563.624 488.648C567.592 488.648 569.608 487.976 569.608 486.44C569.608 484.936 567.592 484.2 563.624 484.2ZM587.109 464.264C591.622 464.264 594.885 468.36 594.885 474.824C594.885 481.352 591.622 485.448 587.109 485.448C582.597 485.448 579.333 481.352 579.333 474.824C579.333 468.36 582.597 464.264 587.109 464.264ZM587.109 468.136C584.901 468.136 583.429 470.472 583.429 474.824C583.429 479.24 584.901 481.608 587.109 481.608C589.318 481.608 590.821 479.24 590.821 474.824C590.821 470.472 589.318 468.136 587.109 468.136ZM598.118 462.216H602.406V491.848H598.118V462.216ZM601.446 473.384H606.694V476.904H601.446V473.384ZM628.483 462.184H632.739V491.912H628.483V462.184ZM609.667 481.544H612.291C617.539 481.544 621.731 481.352 626.435 480.552L626.851 483.976C622.051 484.84 617.699 485 612.291 485H609.667V481.544ZM609.635 464.712H623.619V476.168H613.987V482.824H609.667V472.808H619.267V468.104H609.635V464.712ZM654.611 464.636L647.111 492.5H642.94L650.44 464.636H654.611ZM662.61 464.808H680.05V468.168H662.61V464.808ZM671.346 469.096C675.602 469.096 678.61 471.304 678.61 474.568C678.61 477.832 675.602 480.008 671.346 480.008C667.058 480.008 664.05 477.832 664.05 474.568C664.05 471.304 667.058 469.096 671.346 469.096ZM671.346 472.296C669.426 472.296 668.146 473.064 668.146 474.568C668.146 476.04 669.426 476.808 671.346 476.808C673.234 476.808 674.546 476.04 674.546 474.568C674.546 473.064 673.234 472.296 671.346 472.296ZM681.682 462.216H685.938V480.808H681.682V462.216ZM684.754 469.864H689.874V473.32H684.754V469.864ZM666.162 482.024H685.938V491.848H681.682V485.416H666.162V482.024ZM669.202 462.056H673.458V466.728H669.202V462.056ZM699.023 480.232H703.279V485.032H699.023V480.232ZM711.983 462.216H716.239V491.848H711.983V462.216ZM692.175 486.92L691.663 483.496C697.039 483.464 704.207 483.464 710.447 482.632L710.735 485.704C704.303 486.888 697.423 486.92 692.175 486.92ZM692.239 465.48H710.063V468.808H692.239V465.48ZM701.135 469.992C705.519 469.992 708.559 472.232 708.559 475.528C708.559 478.856 705.519 481.096 701.135 481.096C696.815 481.096 693.775 478.856 693.775 475.528C693.775 472.232 696.815 469.992 701.135 469.992ZM701.135 473.192C699.215 473.192 697.839 474.024 697.839 475.528C697.839 477.064 699.215 477.896 701.135 477.896C703.119 477.896 704.495 477.064 704.495 475.528C704.495 474.024 703.119 473.192 701.135 473.192ZM699.023 462.344H703.279V467.4H699.023V462.344Z" fill="black"/>
<path d="M579.4 102.088H588.168V105.48H579.4V102.088ZM579.4 108.648H588.168V112.072H579.4V108.648ZM574.472 99.784C578.888 99.784 582.28 102.856 582.28 107.048C582.28 111.24 578.888 114.312 574.472 114.312C570.024 114.312 566.632 111.24 566.632 107.048C566.632 102.856 570.024 99.784 574.472 99.784ZM574.472 103.4C572.296 103.4 570.696 104.712 570.696 107.048C570.696 109.352 572.296 110.728 574.472 110.728C576.648 110.728 578.248 109.352 578.248 107.048C578.248 104.712 576.648 103.4 574.472 103.4ZM586.824 98.216H591.08V115.56H586.824V98.216ZM581.032 116.168C587.272 116.168 591.176 118.344 591.176 122.024C591.176 125.704 587.272 127.848 581.032 127.848C574.792 127.848 570.888 125.704 570.888 122.024C570.888 118.344 574.792 116.168 581.032 116.168ZM581.032 119.464C577.16 119.464 575.08 120.296 575.08 122.024C575.08 123.752 577.16 124.584 581.032 124.584C584.936 124.584 586.984 123.752 586.984 122.024C586.984 120.296 584.936 119.464 581.032 119.464ZM601.669 99.816H605.158V102.44C605.158 108.328 602.597 113.512 596.965 115.464L594.693 112.104C599.653 110.44 601.669 106.472 601.669 102.44V99.816ZM602.533 99.816H605.99V102.856C605.99 106.408 607.974 109.864 612.614 111.304L610.406 114.6C605.061 112.808 602.533 108.2 602.533 102.856V99.816ZM614.246 98.216H618.502V115.72H614.246V98.216ZM617.318 105.064H622.438V108.584H617.318V105.064ZM608.837 116.392C614.982 116.392 618.854 118.536 618.854 122.12C618.854 125.736 614.982 127.848 608.837 127.848C602.661 127.848 598.789 125.736 598.789 122.12C598.789 118.536 602.661 116.392 608.837 116.392ZM608.837 119.688C605.061 119.688 603.014 120.488 603.014 122.12C603.014 123.784 605.061 124.552 608.837 124.552C612.614 124.552 614.629 123.784 614.629 122.12C614.629 120.488 612.614 119.688 608.837 119.688ZM645.475 98.216H649.507V127.848H645.475V98.216ZM635.715 108.328H640.611V111.784H635.715V108.328ZM639.491 98.696H643.459V126.504H639.491V98.696ZM629.315 103.048H632.515V106.088C632.515 112.744 630.691 119.368 625.987 122.312L623.459 119.176C627.811 116.456 629.315 111.144 629.315 106.088V103.048ZM630.275 103.048H633.443V106.088C633.443 111.016 634.915 116.008 639.203 118.504L636.707 121.608C632.003 118.824 630.275 112.616 630.275 106.088V103.048ZM624.579 101.192H637.795V104.616H624.579V101.192ZM659.552 101.256H663.04V103.112C663.04 108.712 660.384 113.736 654.72 115.56L652.512 112.264C657.472 110.664 659.552 106.824 659.552 103.112V101.256ZM660.416 101.256H663.872V103.112C663.872 106.6 665.888 110.216 670.688 111.752L668.512 115.048C662.976 113.256 660.416 108.424 660.416 103.112V101.256ZM653.664 99.944H669.664V103.336H653.664V99.944ZM672.032 98.216H676.288V116.072H672.032V98.216ZM675.104 105.384H680.224V108.872H675.104V105.384ZM656.512 117.352H676.288V127.848H672.032V120.776H656.512V117.352Z" fill="black"/>
<path d="M142.632 405.248H146.92V426.848H142.632V405.248ZM127.176 430.944H147.656V434.336H127.176V430.944ZM127.176 424.768H131.432V432.704H127.176V424.768ZM129.224 406.848H132.744V409.728C132.744 415.52 130.088 420.864 124.328 422.88L122.184 419.488C127.144 417.792 129.224 413.664 129.224 409.728V406.848ZM130.088 406.848H133.576V409.728C133.576 413.6 135.592 417.408 140.456 418.976L138.28 422.368C132.68 420.48 130.088 415.456 130.088 409.728V406.848ZM151.173 421.152H177.958V424.544H151.173V421.152ZM162.438 417.952H166.662V422.304H162.438V417.952ZM162.438 405.312H166.662V409.696H162.438V405.312ZM162.181 410.048H165.926V410.656C165.926 415.328 161.67 418.752 153.637 419.424L152.293 416.192C159.365 415.648 162.181 413.12 162.181 410.656V410.048ZM163.174 410.048H166.917V410.656C166.917 413.12 169.701 415.648 176.806 416.192L175.462 419.424C167.43 418.752 163.174 415.328 163.174 410.656V410.048ZM153.733 408.128H175.398V411.424H153.733V408.128ZM154.405 430.944H174.95V434.336H154.405V430.944ZM154.405 426.208H158.661V432.416H154.405V426.208ZM200.337 409.344H209.041V412.736H200.337V409.344ZM200.337 416.544H209.041V419.936H200.337V416.544ZM207.473 405.248H211.729V426.912H207.473V405.248ZM192.177 430.944H212.401V434.336H192.177V430.944ZM192.177 424.768H196.433V432.704H192.177V424.768ZM195.121 406.976C199.505 406.976 202.929 410.176 202.929 414.656C202.929 419.072 199.505 422.304 195.121 422.304C190.705 422.304 187.281 419.072 187.281 414.656C187.281 410.176 190.705 406.976 195.121 406.976ZM195.121 410.72C192.945 410.72 191.345 412.192 191.345 414.656C191.345 417.12 192.945 418.592 195.121 418.592C197.265 418.592 198.897 417.12 198.897 414.656C198.897 412.192 197.265 410.72 195.121 410.72ZM234.895 405.216H239.151V422.56H234.895V405.216ZM237.455 412.32H243.087V415.84H237.455V412.32ZM219.887 423.712H224.079V425.952H234.927V423.712H239.151V434.528H219.887V423.712ZM224.079 429.152V431.2H234.927V429.152H224.079ZM215.823 407.776H233.263V411.136H215.823V407.776ZM224.559 411.936C228.847 411.936 231.823 414.048 231.823 417.184C231.823 420.32 228.847 422.432 224.559 422.432C220.239 422.432 217.263 420.32 217.263 417.184C217.263 414.048 220.239 411.936 224.559 411.936ZM224.559 415.04C222.639 415.04 221.359 415.808 221.359 417.184C221.359 418.592 222.639 419.328 224.559 419.328C226.447 419.328 227.759 418.592 227.759 417.184C227.759 415.808 226.447 415.04 224.559 415.04ZM222.415 404.992H226.671V409.664H222.415V404.992Z" fill="black"/>
<path d="M110.152 142.864H117.064V146.288H110.152V142.864ZM114.824 135.248H119.08V156.848H114.824V135.248ZM99.528 160.944H119.752V164.336H99.528V160.944ZM99.528 155.024H103.784V162.96H99.528V155.024ZM101.128 139.12H104.584V140.976C104.584 146.544 101.96 151.696 96.264 153.584L94.12 150.192C99.016 148.592 101.128 144.72 101.128 140.976V139.12ZM102.024 139.12H105.448V140.976C105.448 144.432 107.464 148.112 112.136 149.68L110.056 153.008C104.552 151.184 102.024 146.256 102.024 140.976V139.12ZM95.272 137.232H111.208V140.592H95.272V137.232ZM130.036 137.808H147.476V141.168H130.036V137.808ZM138.772 142.096C143.028 142.096 146.036 144.304 146.036 147.568C146.036 150.832 143.028 153.008 138.772 153.008C134.484 153.008 131.476 150.832 131.476 147.568C131.476 144.304 134.484 142.096 138.772 142.096ZM138.772 145.296C136.852 145.296 135.572 146.064 135.572 147.568C135.572 149.04 136.852 149.808 138.772 149.808C140.66 149.808 141.972 149.04 141.972 147.568C141.972 146.064 140.66 145.296 138.772 145.296ZM149.108 135.216H153.364V153.808H149.108V135.216ZM152.18 142.864H157.3V146.32H152.18V142.864ZM133.588 155.024H153.364V164.848H149.108V158.416H133.588V155.024ZM136.628 135.056H140.884V139.728H136.628V135.056ZM172.945 143.088H180.561V146.48H172.945V143.088ZM179.473 135.248H183.729V157.104H179.473V135.248ZM164.113 160.944H184.369V164.336H164.113V160.944ZM164.113 154.96H168.401V162.896H164.113V154.96ZM160.177 137.168H164.401V141.68H170.033V137.168H174.193V152.464H160.177V137.168ZM164.401 144.912V149.104H170.033V144.912H164.401ZM216.093 135.216H220.125V164.848H216.093V135.216ZM212.125 146.608H217.053V150.032H212.125V146.608ZM209.469 135.728H213.405V163.44H209.469V135.728ZM195.517 154.672H197.597C201.245 154.672 204.285 154.544 207.805 153.904L208.125 157.36C204.541 158.064 201.405 158.16 197.597 158.16H195.517V154.672ZM195.517 138.64H206.461V142.064H199.741V156.336H195.517V138.64ZM230.074 136.816H233.562V139.44C233.562 145.328 231.002 150.512 225.37 152.464L223.098 149.104C228.058 147.44 230.074 143.472 230.074 139.44V136.816ZM230.938 136.816H234.394V139.856C234.394 143.408 236.378 146.864 241.018 148.304L238.81 151.6C233.466 149.808 230.938 145.2 230.938 139.856V136.816ZM242.65 135.216H246.906V152.72H242.65V135.216ZM245.722 142.064H250.842V145.584H245.722V142.064ZM237.242 153.392C243.386 153.392 247.258 155.536 247.258 159.12C247.258 162.736 243.386 164.848 237.242 164.848C231.066 164.848 227.194 162.736 227.194 159.12C227.194 155.536 231.066 153.392 237.242 153.392ZM237.242 156.688C233.466 156.688 231.418 157.488 231.418 159.12C231.418 160.784 233.466 161.552 237.242 161.552C241.018 161.552 243.034 160.784 243.034 159.12C243.034 157.488 241.018 156.688 237.242 156.688Z" fill="black"/>
<path d="M332.023 307V283.727H347.705V287.784H336.943V293.33H346.898V297.386H336.943V302.943H347.75V307H332.023ZM356.311 307L349.652 283.727H355.027L358.879 299.898H359.072L363.322 283.727H367.925L372.163 299.932H372.368L376.22 283.727H381.595L374.936 307H370.141L365.709 291.784H365.527L361.107 307H356.311ZM383.685 307V283.727H388.605V293.33H398.594V283.727H403.503V307H398.594V297.386H388.605V307H383.685ZM411.027 307H405.754L413.788 283.727H420.129L428.152 307H422.879L417.05 289.045H416.868L411.027 307ZM410.698 297.852H423.152V301.693H410.698V297.852ZM430.409 283.727H436.477L442.886 299.364H443.159L449.568 283.727H455.636V307H450.864V291.852H450.671L444.648 306.886H441.398L435.375 291.795H435.182V307H430.409V283.727ZM480.533 295.364C480.533 297.902 480.052 300.061 479.09 301.841C478.135 303.621 476.832 304.981 475.181 305.92C473.537 306.852 471.688 307.318 469.635 307.318C467.567 307.318 465.711 306.848 464.067 305.909C462.423 304.97 461.124 303.61 460.169 301.83C459.215 300.049 458.737 297.894 458.737 295.364C458.737 292.826 459.215 290.667 460.169 288.886C461.124 287.106 462.423 285.75 464.067 284.818C465.711 283.879 467.567 283.409 469.635 283.409C471.688 283.409 473.537 283.879 475.181 284.818C476.832 285.75 478.135 287.106 479.09 288.886C480.052 290.667 480.533 292.826 480.533 295.364ZM475.544 295.364C475.544 293.72 475.298 292.333 474.806 291.205C474.321 290.076 473.635 289.22 472.749 288.636C471.862 288.053 470.825 287.761 469.635 287.761C468.446 287.761 467.408 288.053 466.521 288.636C465.635 289.22 464.946 290.076 464.453 291.205C463.968 292.333 463.726 293.72 463.726 295.364C463.726 297.008 463.968 298.394 464.453 299.523C464.946 300.652 465.635 301.508 466.521 302.091C467.408 302.674 468.446 302.966 469.635 302.966C470.825 302.966 471.862 302.674 472.749 302.091C473.635 301.508 474.321 300.652 474.806 299.523C475.298 298.394 475.544 297.008 475.544 295.364ZM486.333 307H481.06L489.094 283.727H495.435L503.458 307H498.185L492.355 289.045H492.173L486.333 307ZM486.003 297.852H498.458V301.693H486.003V297.852Z" fill="black"/>
<defs>
<filter id="filter0_d_2423_184" x="462" y="412" width="345" height="131" filterUnits="userSpaceOnUse" color-interpolation-filters="sRGB">
<feFlood flood-opacity="0" result="BackgroundImageFix"/>
<feColorMatrix in="SourceAlpha" type="matrix" values="0 0 0 0 0 0 0 0 0 0 0 0 0 0 0 0 0 0 127 0" result="hardAlpha"/>
<feOffset/>
<feGaussianBlur stdDeviation="10"/>
<feComposite in2="hardAlpha" operator="out"/>
<feColorMatrix type="matrix" values="0 0 0 0 0 0 0 0 0 0 0 0 0 0 0 0 0 0 0.25 0"/>
<feBlend mode="normal" in2="BackgroundImageFix" result="effect1_dropShadow_2423_184"/>
<feBlend mode="normal" in="SourceGraphic" in2="effect1_dropShadow_2423_184" result="shape"/>
</filter>
<filter id="filter1_d_2423_184" x="267" y="231" width="302" height="127" filterUnits="userSpaceOnUse" color-interpolation-filters="sRGB">
<feFlood flood-opacity="0" result="BackgroundImageFix"/>
<feColorMatrix in="SourceAlpha" type="matrix" values="0 0 0 0 0 0 0 0 0 0 0 0 0 0 0 0 0 0 127 0" result="hardAlpha"/>
<feOffset/>
<feGaussianBlur stdDeviation="10"/>
<feComposite in2="hardAlpha" operator="out"/>
<feColorMatrix type="matrix" values="0 0 0 0 0 0 0 0 0 0 0 0 0 0 0 0 0 0 0.25 0"/>
<feBlend mode="normal" in2="BackgroundImageFix" result="effect1_dropShadow_2423_184"/>
<feBlend mode="normal" in="SourceGraphic" in2="effect1_dropShadow_2423_184" result="shape"/>
</filter>
<filter id="filter2_d_2423_184" x="499" y="50" width="249" height="127" filterUnits="userSpaceOnUse" color-interpolation-filters="sRGB">
<feFlood flood-opacity="0" result="BackgroundImageFix"/>
<feColorMatrix in="SourceAlpha" type="matrix" values="0 0 0 0 0 0 0 0 0 0 0 0 0 0 0 0 0 0 127 0" result="hardAlpha"/>
<feOffset/>
<feGaussianBlur stdDeviation="10"/>
<feComposite in2="hardAlpha" operator="out"/>
<feColorMatrix type="matrix" values="0 0 0 0 0 0 0 0 0 0 0 0 0 0 0 0 0 0 0.25 0"/>
<feBlend mode="normal" in2="BackgroundImageFix" result="effect1_dropShadow_2423_184"/>
<feBlend mode="normal" in="SourceGraphic" in2="effect1_dropShadow_2423_184" result="shape"/>
</filter>
<filter id="filter3_d_2423_184" x="58" y="357" width="249" height="127" filterUnits="userSpaceOnUse" color-interpolation-filters="sRGB">
<feFlood flood-opacity="0" result="BackgroundImageFix"/>
<feColorMatrix in="SourceAlpha" type="matrix" values="0 0 0 0 0 0 0 0 0 0 0 0 0 0 0 0 0 0 127 0" result="hardAlpha"/>
<feOffset/>
<feGaussianBlur stdDeviation="10"/>
<feComposite in2="hardAlpha" operator="out"/>
<feColorMatrix type="matrix" values="0 0 0 0 0 0 0 0 0 0 0 0 0 0 0 0 0 0 0.25 0"/>
<feBlend mode="normal" in2="BackgroundImageFix" result="effect1_dropShadow_2423_184"/>
<feBlend mode="normal" in="SourceGraphic" in2="effect1_dropShadow_2423_184" result="shape"/>
</filter>
<filter id="filter4_d_2423_184" x="0" y="85" width="345" height="131" filterUnits="userSpaceOnUse" color-interpolation-filters="sRGB">
<feFlood flood-opacity="0" result="BackgroundImageFix"/>
<feColorMatrix in="SourceAlpha" type="matrix" values="0 0 0 0 0 0 0 0 0 0 0 0 0 0 0 0 0 0 127 0" result="hardAlpha"/>
<feOffset/>
<feGaussianBlur stdDeviation="10"/>
<feComposite in2="hardAlpha" operator="out"/>
<feColorMatrix type="matrix" values="0 0 0 0 0 0 0 0 0 0 0 0 0 0 0 0 0 0 0.25 0"/>
<feBlend mode="normal" in2="BackgroundImageFix" result="effect1_dropShadow_2423_184"/>
<feBlend mode="normal" in="SourceGraphic" in2="effect1_dropShadow_2423_184" result="shape"/>
</filter>
</defs>
</svg>
