<svg width="35" height="31" viewBox="0 0 35 31" fill="none" xmlns="http://www.w3.org/2000/svg">
<path d="M2 19V26C2 27.6569 3.34315 29 5 29H30C31.6569 29 33 27.6569 33 26V19" stroke="#989898" stroke-width="3" stroke-linecap="round"/>
<path d="M15.5 22C15.5 22.8284 16.1716 23.5 17 23.5C17.8284 23.5 18.5 22.8284 18.5 22H15.5ZM18.0607 0.939341C17.4749 0.353554 16.5251 0.353554 15.9393 0.939341L6.3934 10.4853C5.80761 11.0711 5.80761 12.0208 6.3934 12.6066C6.97919 13.1924 7.92893 13.1924 8.51472 12.6066L17 4.12132L25.4853 12.6066C26.0711 13.1924 27.0208 13.1924 27.6066 12.6066C28.1924 12.0208 28.1924 11.0711 27.6066 10.4853L18.0607 0.939341ZM18.5 22V2H15.5L15.5 22H18.5Z" fill="#989898"/>
</svg>
